<svg xmlns="http://www.w3.org/2000/svg" xmlns:xlink="http://www.w3.org/1999/xlink" width="50" zoomAndPan="magnify" viewBox="0 0 37.5 37.499999" height="50" preserveAspectRatio="xMidYMid meet" version="1.0"><defs><g/><clipPath id="4c5cf87650"><path d="M 1 2.21875 L 34.785156 2.21875 L 34.785156 36 L 1 36 Z M 1 2.21875 " clip-rule="nonzero"/></clipPath></defs><g clip-path="url(#4c5cf87650)"><path fill="#3998ff" d="M 34.761719 18.953125 C 34.761719 19.503906 34.738281 20.046875 34.683594 20.59375 C 34.628906 21.140625 34.550781 21.679688 34.441406 22.21875 C 34.335938 22.753906 34.203125 23.285156 34.042969 23.808594 C 33.882812 24.332031 33.699219 24.847656 33.492188 25.355469 C 33.28125 25.859375 33.046875 26.355469 32.789062 26.839844 C 32.53125 27.320312 32.25 27.792969 31.945312 28.246094 C 31.640625 28.703125 31.316406 29.140625 30.96875 29.566406 C 30.621094 29.988281 30.253906 30.394531 29.867188 30.78125 C 29.476562 31.167969 29.074219 31.535156 28.648438 31.882812 C 28.226562 32.230469 27.785156 32.558594 27.332031 32.863281 C 26.875 33.167969 26.40625 33.449219 25.921875 33.707031 C 25.441406 33.964844 24.945312 34.199219 24.441406 34.40625 C 23.933594 34.617188 23.417969 34.800781 22.894531 34.960938 C 22.371094 35.121094 21.839844 35.253906 21.300781 35.359375 C 20.765625 35.464844 20.222656 35.546875 19.679688 35.601562 C 19.132812 35.652344 18.585938 35.679688 18.039062 35.679688 C 17.492188 35.679688 16.945312 35.652344 16.398438 35.601562 C 15.855469 35.546875 15.3125 35.464844 14.777344 35.359375 C 14.238281 35.253906 13.707031 35.121094 13.183594 34.960938 C 12.660156 34.800781 12.144531 34.617188 11.636719 34.40625 C 11.132812 34.199219 10.636719 33.964844 10.15625 33.707031 C 9.671875 33.449219 9.203125 33.167969 8.746094 32.863281 C 8.292969 32.558594 7.851562 32.230469 7.429688 31.886719 C 7.003906 31.539062 6.601562 31.167969 6.210938 30.78125 C 5.824219 30.394531 5.457031 29.988281 5.109375 29.566406 C 4.761719 29.144531 4.4375 28.703125 4.132812 28.246094 C 3.828125 27.792969 3.546875 27.324219 3.289062 26.839844 C 3.03125 26.355469 2.796875 25.863281 2.585938 25.355469 C 2.378906 24.851562 2.191406 24.335938 2.035156 23.8125 C 1.875 23.285156 1.742188 22.757812 1.636719 22.21875 C 1.527344 21.679688 1.449219 21.140625 1.394531 20.59375 C 1.339844 20.050781 1.3125 19.503906 1.3125 18.957031 C 1.3125 18.40625 1.339844 17.863281 1.394531 17.316406 C 1.449219 16.769531 1.527344 16.230469 1.636719 15.691406 C 1.742188 15.15625 1.875 14.625 2.035156 14.101562 C 2.195312 13.578125 2.378906 13.0625 2.585938 12.554688 C 2.796875 12.050781 3.03125 11.554688 3.289062 11.070312 C 3.546875 10.589844 3.828125 10.117188 4.132812 9.664062 C 4.4375 9.207031 4.765625 8.769531 5.109375 8.34375 C 5.457031 7.921875 5.828125 7.515625 6.214844 7.128906 C 6.601562 6.742188 7.007812 6.375 7.429688 6.027344 C 7.851562 5.679688 8.292969 5.355469 8.75 5.050781 C 9.203125 4.746094 9.671875 4.464844 10.15625 4.207031 C 10.640625 3.949219 11.132812 3.714844 11.640625 3.503906 C 12.144531 3.292969 12.660156 3.109375 13.1875 2.953125 C 13.710938 2.792969 14.242188 2.660156 14.777344 2.554688 C 15.316406 2.445312 15.855469 2.367188 16.402344 2.3125 C 16.945312 2.257812 17.492188 2.230469 18.039062 2.230469 C 18.589844 2.230469 19.136719 2.253906 19.683594 2.308594 C 20.226562 2.359375 20.769531 2.4375 21.308594 2.542969 C 21.84375 2.648438 22.378906 2.78125 22.902344 2.9375 C 23.425781 3.097656 23.941406 3.28125 24.449219 3.488281 C 24.957031 3.699219 25.453125 3.929688 25.9375 4.1875 C 26.417969 4.445312 26.890625 4.726562 27.34375 5.03125 C 27.800781 5.335938 28.242188 5.660156 28.664062 6.007812 C 29.089844 6.355469 29.496094 6.722656 29.882812 7.113281 C 30.269531 7.5 30.636719 7.90625 30.984375 8.328125 C 31.332031 8.753906 31.660156 9.191406 31.964844 9.648438 C 32.269531 10.105469 32.546875 10.574219 32.804688 11.058594 C 33.0625 11.542969 33.296875 12.039062 33.507812 12.546875 C 33.714844 13.050781 33.898438 13.566406 34.058594 14.09375 C 34.214844 14.617188 34.347656 15.148438 34.453125 15.6875 C 34.558594 16.226562 34.636719 16.765625 34.6875 17.3125 C 34.738281 17.859375 34.765625 18.40625 34.761719 18.953125 Z M 34.761719 18.953125 " fill-opacity="1" fill-rule="nonzero"/></g><path fill="#ffffff" d="M 30.941406 29.601562 C 30.546875 30.082031 30.125 30.535156 29.679688 30.96875 C 29.234375 31.398438 28.765625 31.804688 28.273438 32.183594 C 27.78125 32.566406 27.273438 32.917969 26.742188 33.238281 C 26.210938 33.5625 25.664062 33.855469 25.101562 34.117188 C 24.539062 34.378906 23.964844 34.609375 23.375 34.808594 C 22.785156 35.003906 22.1875 35.171875 21.582031 35.300781 C 20.976562 35.433594 20.363281 35.53125 19.746094 35.59375 C 19.128906 35.65625 18.507812 35.6875 17.886719 35.679688 C 17.265625 35.675781 16.648438 35.636719 16.03125 35.558594 C 15.414062 35.484375 14.804688 35.378906 14.203125 35.234375 C 13.597656 35.09375 13.003906 34.917969 12.417969 34.707031 C 11.832031 34.5 11.261719 34.257812 10.703125 33.988281 C 10.144531 33.714844 9.605469 33.410156 9.082031 33.078125 C 8.554688 32.746094 8.050781 32.386719 7.566406 31.996094 C 7.082031 31.609375 6.621094 31.195312 6.183594 30.753906 C 5.746094 30.316406 5.335938 29.851562 4.949219 29.367188 C 6.730469 26.824219 9.492188 25.0625 15.296875 24.996094 C 22 24.914062 26.929688 24.671875 28.964844 26.925781 C 29.707031 27.753906 30.367188 28.648438 30.941406 29.601562 Z M 30.941406 29.601562 " fill-opacity="1" fill-rule="nonzero"/><path fill="#14213d" d="M 12.5 14.738281 C 9.285156 13.574219 9.808594 9.332031 10.265625 9.242188 C 10.722656 9.148438 11.699219 9.902344 11.746094 9.925781 C 11.792969 9.949219 11.519531 8.03125 12.136719 7.144531 C 12.75 6.253906 15.101562 8.054688 16.902344 8.078125 C 18.703125 8.101562 23.058594 8.214844 24.335938 9.355469 C 25.613281 10.496094 24.949219 12.933594 24.949219 12.933594 C 24.949219 12.933594 26.410156 13.324219 26.113281 15.375 C 25.816406 17.429688 23.515625 19.191406 22.691406 20.667969 C 21.871094 22.148438 16.996094 22.421875 16.238281 20.277344 " fill-opacity="1" fill-rule="nonzero"/><path fill="#ffb5a6" d="M 17.796875 27.46875 C 15.457031 27.46875 15.113281 25.515625 15.105469 25.1875 C 15.105469 25.148438 15.101562 25.082031 15.105469 24.992188 C 15.101562 24.808594 15.101562 24.527344 15.101562 24.199219 C 15.109375 23.304688 15.121094 22.078125 15.105469 21.546875 L 19.570312 19.949219 L 20.378906 19.660156 L 21.28125 19.339844 C 21.28125 19.339844 21.273438 19.511719 21.265625 19.800781 C 21.261719 19.964844 21.257812 20.167969 21.25 20.398438 C 21.25 20.425781 21.25 20.453125 21.246094 20.480469 C 21.242188 20.8125 21.238281 21.195312 21.226562 21.597656 C 21.214844 22.855469 21.207031 24.269531 21.273438 24.777344 C 21.398438 25.765625 20.132812 27.46875 17.796875 27.46875 Z M 17.796875 27.46875 " fill-opacity="1" fill-rule="nonzero"/><path fill="#e86b70" d="M 21.285156 20.40625 C 21.273438 20.433594 21.261719 20.457031 21.246094 20.480469 C 19.664062 23.734375 17.28125 25.027344 15.105469 24.992188 C 15.101562 24.808594 15.101562 24.527344 15.101562 24.199219 C 15.109375 23.304688 15.117188 22.078125 15.105469 21.546875 L 19.566406 19.949219 L 21.25 20.398438 Z M 21.285156 20.40625 " fill-opacity="1" fill-rule="nonzero"/><path fill="#ffb5a6" d="M 12.410156 11.839844 C 15.011719 14.957031 21.433594 14.394531 21.433594 14.394531 C 21.433594 14.394531 21.554688 18.042969 22.191406 18.011719 C 22.832031 17.984375 22.9375 15.960938 24.503906 16.296875 C 26.070312 16.632812 25.097656 19.65625 23.878906 19.824219 C 22.664062 19.988281 22.359375 18.957031 22.359375 18.957031 C 22.359375 18.957031 20.117188 23.402344 16.558594 23.402344 C 13 23.402344 12.089844 19.992188 12.113281 18.136719 C 12.132812 16.277344 12.410156 11.839844 12.410156 11.839844 Z M 12.410156 11.839844 " fill-opacity="1" fill-rule="nonzero"/><g fill="#3998ff" fill-opacity="1"><g transform="translate(5.550987, 18.527959)"><g><path d="M 1.671875 0 L 1.5625 -0.296875 L 1.546875 -0.296875 C 1.441406 -0.171875 1.335938 -0.0820312 1.234375 -0.03125 C 1.128906 0.0078125 0.992188 0.03125 0.828125 0.03125 C 0.617188 0.03125 0.457031 -0.0234375 0.34375 -0.140625 C 0.226562 -0.253906 0.171875 -0.421875 0.171875 -0.640625 C 0.171875 -0.867188 0.25 -1.035156 0.40625 -1.140625 C 0.5625 -1.253906 0.800781 -1.316406 1.125 -1.328125 L 1.5 -1.34375 L 1.5 -1.4375 C 1.5 -1.65625 1.390625 -1.765625 1.171875 -1.765625 C 0.992188 -1.765625 0.789062 -1.710938 0.5625 -1.609375 L 0.359375 -2 C 0.609375 -2.125 0.882812 -2.1875 1.1875 -2.1875 C 1.476562 -2.1875 1.695312 -2.125 1.84375 -2 C 2 -1.875 2.078125 -1.6875 2.078125 -1.4375 L 2.078125 0 Z M 1.5 -1 L 1.265625 -0.984375 C 1.097656 -0.984375 0.972656 -0.953125 0.890625 -0.890625 C 0.804688 -0.835938 0.765625 -0.753906 0.765625 -0.640625 C 0.765625 -0.472656 0.859375 -0.390625 1.046875 -0.390625 C 1.179688 -0.390625 1.289062 -0.425781 1.375 -0.5 C 1.457031 -0.582031 1.5 -0.6875 1.5 -0.8125 Z M 1.5 -1 "/></g></g></g></svg>