<svg xmlns="http://www.w3.org/2000/svg" xmlns:xlink="http://www.w3.org/1999/xlink" width="400" zoomAndPan="magnify" viewBox="0 0 300 74.999997" height="100" preserveAspectRatio="xMidYMid meet" version="1.0"><defs><g/><clipPath id="f1de98592e"><path d="M 0 0 L 252.75 0 L 252.75 75 L 0 75 Z M 0 0 " clip-rule="nonzero"/></clipPath></defs><rect x="-30" width="360" fill="#ffffff" y="-7.5" height="89.999996" fill-opacity="1"/><rect x="-30" width="360" fill="#ffffff" y="-7.5" height="89.999996" fill-opacity="1"/><g clip-path="url(#f1de98592e)"><path fill="#ffffff" d="M 238.84375 84.722656 L 13.90625 84.722656 C 6.234375 84.722656 0 78.457031 0 70.75 L 0 14 C 0 6.292969 6.234375 0.0273438 13.90625 0.0273438 L 238.796875 0.0273438 C 246.46875 0.0273438 252.707031 6.292969 252.707031 14 L 252.707031 70.75 C 252.75 78.457031 246.515625 84.722656 238.84375 84.722656 Z M 238.84375 84.722656 " fill-opacity="1" fill-rule="nonzero"/></g><path fill="#68bc5a" d="M 34.722656 9.089844 L 18.4375 9.089844 C 15.34375 9.089844 12.832031 11.613281 12.832031 14.722656 L 12.832031 27.792969 C 12.832031 30.902344 15.34375 33.429688 18.4375 33.429688 L 34.722656 33.429688 C 37.816406 33.429688 40.332031 30.902344 40.332031 27.792969 L 40.332031 14.722656 C 40.332031 11.613281 37.816406 9.089844 34.722656 9.089844 Z M 26.558594 29.328125 C 24.628906 29.328125 22.789062 28.742188 21.355469 27.792969 L 18.125 28.199219 L 19.199219 25.808594 C 18.257812 24.546875 17.675781 23.015625 17.675781 21.394531 C 17.675781 17.019531 21.625 13.503906 26.511719 13.503906 C 31.402344 13.503906 35.351562 17.066406 35.351562 21.394531 C 35.351562 25.71875 31.449219 29.328125 26.558594 29.328125 Z M 26.558594 29.328125 " fill-opacity="1" fill-rule="nonzero"/><path fill="#68bc5a" d="M 117.851562 24.007812 L 50.199219 24.007812 C 48.675781 24.007812 47.464844 22.789062 47.464844 21.257812 C 47.464844 19.726562 48.675781 18.507812 50.199219 18.507812 L 117.851562 18.507812 C 119.375 18.507812 120.585938 19.726562 120.585938 21.257812 C 120.585938 22.789062 119.332031 24.007812 117.851562 24.007812 Z M 117.851562 24.007812 " fill-opacity="1" fill-rule="nonzero"/><path fill="#808080" d="M 70.074219 51.59375 L 12.964844 51.59375 C 11.441406 51.59375 10.226562 50.375 10.226562 48.84375 C 10.226562 47.308594 11.441406 46.09375 12.964844 46.09375 L 70.027344 46.09375 C 71.554688 46.09375 72.765625 47.308594 72.765625 48.84375 C 72.808594 50.375 71.554688 51.59375 70.074219 51.59375 Z M 70.074219 51.59375 " fill-opacity="1" fill-rule="nonzero"/><path fill="#808080" d="M 74.246094 62.949219 L 12.964844 62.949219 C 11.441406 62.949219 10.226562 61.734375 10.226562 60.203125 C 10.226562 58.667969 11.441406 57.453125 12.964844 57.453125 L 74.199219 57.453125 C 75.726562 57.453125 76.9375 58.667969 76.9375 60.203125 C 76.9375 61.734375 75.726562 62.949219 74.246094 62.949219 Z M 74.246094 62.949219 " fill-opacity="1" fill-rule="nonzero"/><path fill="#808080" d="M 113.992188 62.949219 L 87.390625 62.949219 C 85.863281 62.949219 84.652344 61.734375 84.652344 60.203125 C 84.652344 58.667969 85.863281 57.453125 87.390625 57.453125 L 113.992188 57.453125 C 115.519531 57.453125 116.730469 58.667969 116.730469 60.203125 C 116.730469 61.734375 115.519531 62.949219 113.992188 62.949219 Z M 113.992188 62.949219 " fill-opacity="1" fill-rule="nonzero"/><path fill="#808080" d="M 144.769531 51.59375 L 83.53125 51.59375 C 82.007812 51.59375 80.796875 50.375 80.796875 48.84375 C 80.796875 47.308594 82.007812 46.09375 83.53125 46.09375 L 144.769531 46.09375 C 146.292969 46.09375 147.503906 47.308594 147.503906 48.84375 C 147.503906 50.375 146.292969 51.59375 144.769531 51.59375 Z M 144.769531 51.59375 " fill-opacity="1" fill-rule="nonzero"/><g fill="#68bc5a" fill-opacity="1"><g transform="translate(162.518618, 32.523189)"><g><path d="M 13.078125 0 L 9.609375 0 L 3.984375 -9.765625 L 3.90625 -9.765625 C 4.019531 -8.046875 4.078125 -6.816406 4.078125 -6.078125 L 4.078125 0 L 1.625 0 L 1.625 -12.921875 L 5.078125 -12.921875 L 10.6875 -3.25 L 10.75 -3.25 C 10.664062 -4.925781 10.625 -6.109375 10.625 -6.796875 L 10.625 -12.921875 L 13.078125 -12.921875 Z M 13.078125 0 "/></g></g></g><g fill="#68bc5a" fill-opacity="1"><g transform="translate(177.217305, 32.523189)"><g><path d="M 3.5625 -4.953125 C 3.5625 -3.972656 3.722656 -3.234375 4.046875 -2.734375 C 4.367188 -2.234375 4.890625 -1.984375 5.609375 -1.984375 C 6.328125 -1.984375 6.84375 -2.234375 7.15625 -2.734375 C 7.476562 -3.234375 7.640625 -3.972656 7.640625 -4.953125 C 7.640625 -5.929688 7.476562 -6.664062 7.15625 -7.15625 C 6.832031 -7.644531 6.3125 -7.890625 5.59375 -7.890625 C 4.875 -7.890625 4.351562 -7.644531 4.03125 -7.15625 C 3.71875 -6.675781 3.5625 -5.941406 3.5625 -4.953125 Z M 10.390625 -4.953125 C 10.390625 -3.347656 9.960938 -2.09375 9.109375 -1.1875 C 8.265625 -0.28125 7.085938 0.171875 5.578125 0.171875 C 4.628906 0.171875 3.789062 -0.03125 3.0625 -0.4375 C 2.34375 -0.851562 1.785156 -1.453125 1.390625 -2.234375 C 1.003906 -3.015625 0.8125 -3.921875 0.8125 -4.953125 C 0.8125 -6.566406 1.234375 -7.820312 2.078125 -8.71875 C 2.921875 -9.613281 4.101562 -10.0625 5.625 -10.0625 C 6.570312 -10.0625 7.40625 -9.851562 8.125 -9.4375 C 8.851562 -9.03125 9.410156 -8.441406 9.796875 -7.671875 C 10.191406 -6.898438 10.390625 -5.992188 10.390625 -4.953125 Z M 10.390625 -4.953125 "/></g></g></g><g fill="#68bc5a" fill-opacity="1"><g transform="translate(188.41126, 32.523189)"><g><path d="M 5.578125 -1.96875 C 6.046875 -1.96875 6.609375 -2.070312 7.265625 -2.28125 L 7.265625 -0.28125 C 6.597656 0.0195312 5.773438 0.171875 4.796875 0.171875 C 3.722656 0.171875 2.9375 -0.0976562 2.4375 -0.640625 C 1.945312 -1.179688 1.703125 -2 1.703125 -3.09375 L 1.703125 -7.859375 L 0.421875 -7.859375 L 0.421875 -9 L 1.90625 -9.890625 L 2.671875 -11.984375 L 4.40625 -11.984375 L 4.40625 -9.875 L 7.171875 -9.875 L 7.171875 -7.859375 L 4.40625 -7.859375 L 4.40625 -3.09375 C 4.40625 -2.707031 4.507812 -2.421875 4.71875 -2.234375 C 4.9375 -2.054688 5.222656 -1.96875 5.578125 -1.96875 Z M 5.578125 -1.96875 "/></g></g></g><g fill="#68bc5a" fill-opacity="1"><g transform="translate(196.259388, 32.523189)"><g><path d="M 1.296875 -12.4375 C 1.296875 -13.3125 1.785156 -13.75 2.765625 -13.75 C 3.742188 -13.75 4.234375 -13.3125 4.234375 -12.4375 C 4.234375 -12.007812 4.109375 -11.679688 3.859375 -11.453125 C 3.617188 -11.222656 3.253906 -11.109375 2.765625 -11.109375 C 1.785156 -11.109375 1.296875 -11.550781 1.296875 -12.4375 Z M 4.109375 0 L 1.40625 0 L 1.40625 -9.875 L 4.109375 -9.875 Z M 4.109375 0 "/></g></g></g><g fill="#68bc5a" fill-opacity="1"><g transform="translate(201.776913, 32.523189)"><g><path d="M 6.875 -7.859375 L 4.546875 -7.859375 L 4.546875 0 L 1.84375 0 L 1.84375 -7.859375 L 0.359375 -7.859375 L 0.359375 -9.15625 L 1.84375 -9.875 L 1.84375 -10.609375 C 1.84375 -11.734375 2.117188 -12.550781 2.671875 -13.0625 C 3.222656 -13.582031 4.113281 -13.84375 5.34375 -13.84375 C 6.269531 -13.84375 7.09375 -13.703125 7.8125 -13.421875 L 7.125 -11.453125 C 6.582031 -11.617188 6.082031 -11.703125 5.625 -11.703125 C 5.238281 -11.703125 4.960938 -11.585938 4.796875 -11.359375 C 4.628906 -11.140625 4.546875 -10.851562 4.546875 -10.5 L 4.546875 -9.875 L 6.875 -9.875 Z M 6.875 -7.859375 "/></g></g></g><g fill="#68bc5a" fill-opacity="1"><g transform="translate(208.777549, 32.523189)"><g><path d="M 1.296875 -12.4375 C 1.296875 -13.3125 1.785156 -13.75 2.765625 -13.75 C 3.742188 -13.75 4.234375 -13.3125 4.234375 -12.4375 C 4.234375 -12.007812 4.109375 -11.679688 3.859375 -11.453125 C 3.617188 -11.222656 3.253906 -11.109375 2.765625 -11.109375 C 1.785156 -11.109375 1.296875 -11.550781 1.296875 -12.4375 Z M 4.109375 0 L 1.40625 0 L 1.40625 -9.875 L 4.109375 -9.875 Z M 4.109375 0 "/></g></g></g><g fill="#68bc5a" fill-opacity="1"><g transform="translate(214.295074, 32.523189)"><g><path d="M 5.421875 0.171875 C 2.347656 0.171875 0.8125 -1.515625 0.8125 -4.890625 C 0.8125 -6.566406 1.226562 -7.847656 2.0625 -8.734375 C 2.90625 -9.617188 4.101562 -10.0625 5.65625 -10.0625 C 6.800781 -10.0625 7.828125 -9.835938 8.734375 -9.390625 L 7.9375 -7.3125 C 7.519531 -7.476562 7.125 -7.613281 6.75 -7.71875 C 6.382812 -7.832031 6.019531 -7.890625 5.65625 -7.890625 C 4.257812 -7.890625 3.5625 -6.894531 3.5625 -4.90625 C 3.5625 -2.96875 4.257812 -2 5.65625 -2 C 6.175781 -2 6.65625 -2.066406 7.09375 -2.203125 C 7.539062 -2.347656 7.984375 -2.566406 8.421875 -2.859375 L 8.421875 -0.5625 C 7.992188 -0.28125 7.554688 -0.0859375 7.109375 0.015625 C 6.660156 0.117188 6.097656 0.171875 5.421875 0.171875 Z M 5.421875 0.171875 "/></g></g></g><g fill="#68bc5a" fill-opacity="1"><g transform="translate(223.591, 32.523189)"><g><path d="M 7.6875 0 L 7.171875 -1.34375 L 7.09375 -1.34375 C 6.644531 -0.769531 6.175781 -0.375 5.6875 -0.15625 C 5.207031 0.0625 4.582031 0.171875 3.8125 0.171875 C 2.863281 0.171875 2.117188 -0.0976562 1.578125 -0.640625 C 1.035156 -1.179688 0.765625 -1.953125 0.765625 -2.953125 C 0.765625 -4.003906 1.128906 -4.773438 1.859375 -5.265625 C 2.585938 -5.765625 3.691406 -6.039062 5.171875 -6.09375 L 6.890625 -6.15625 L 6.890625 -6.578125 C 6.890625 -7.578125 6.378906 -8.078125 5.359375 -8.078125 C 4.566406 -8.078125 3.640625 -7.84375 2.578125 -7.375 L 1.671875 -9.1875 C 2.816406 -9.78125 4.078125 -10.078125 5.453125 -10.078125 C 6.785156 -10.078125 7.800781 -9.785156 8.5 -9.203125 C 9.207031 -8.628906 9.5625 -7.753906 9.5625 -6.578125 L 9.5625 0 Z M 6.890625 -4.578125 L 5.84375 -4.546875 C 5.0625 -4.515625 4.476562 -4.367188 4.09375 -4.109375 C 3.71875 -3.859375 3.53125 -3.46875 3.53125 -2.9375 C 3.53125 -2.175781 3.960938 -1.796875 4.828125 -1.796875 C 5.453125 -1.796875 5.953125 -1.972656 6.328125 -2.328125 C 6.703125 -2.691406 6.890625 -3.171875 6.890625 -3.765625 Z M 6.890625 -4.578125 "/></g></g></g><g fill="#68bc5a" fill-opacity="1"><g transform="translate(234.511286, 32.523189)"><g><path d="M 5.578125 -1.96875 C 6.046875 -1.96875 6.609375 -2.070312 7.265625 -2.28125 L 7.265625 -0.28125 C 6.597656 0.0195312 5.773438 0.171875 4.796875 0.171875 C 3.722656 0.171875 2.9375 -0.0976562 2.4375 -0.640625 C 1.945312 -1.179688 1.703125 -2 1.703125 -3.09375 L 1.703125 -7.859375 L 0.421875 -7.859375 L 0.421875 -9 L 1.90625 -9.890625 L 2.671875 -11.984375 L 4.40625 -11.984375 L 4.40625 -9.875 L 7.171875 -9.875 L 7.171875 -7.859375 L 4.40625 -7.859375 L 4.40625 -3.09375 C 4.40625 -2.707031 4.507812 -2.421875 4.71875 -2.234375 C 4.9375 -2.054688 5.222656 -1.96875 5.578125 -1.96875 Z M 5.578125 -1.96875 "/></g></g></g><g fill="#68bc5a" fill-opacity="1"><g transform="translate(242.359413, 32.523189)"><g><path d="M 1.296875 -12.4375 C 1.296875 -13.3125 1.785156 -13.75 2.765625 -13.75 C 3.742188 -13.75 4.234375 -13.3125 4.234375 -12.4375 C 4.234375 -12.007812 4.109375 -11.679688 3.859375 -11.453125 C 3.617188 -11.222656 3.253906 -11.109375 2.765625 -11.109375 C 1.785156 -11.109375 1.296875 -11.550781 1.296875 -12.4375 Z M 4.109375 0 L 1.40625 0 L 1.40625 -9.875 L 4.109375 -9.875 Z M 4.109375 0 "/></g></g></g><g fill="#68bc5a" fill-opacity="1"><g transform="translate(247.876939, 32.523189)"><g><path d="M 3.5625 -4.953125 C 3.5625 -3.972656 3.722656 -3.234375 4.046875 -2.734375 C 4.367188 -2.234375 4.890625 -1.984375 5.609375 -1.984375 C 6.328125 -1.984375 6.84375 -2.234375 7.15625 -2.734375 C 7.476562 -3.234375 7.640625 -3.972656 7.640625 -4.953125 C 7.640625 -5.929688 7.476562 -6.664062 7.15625 -7.15625 C 6.832031 -7.644531 6.3125 -7.890625 5.59375 -7.890625 C 4.875 -7.890625 4.351562 -7.644531 4.03125 -7.15625 C 3.71875 -6.675781 3.5625 -5.941406 3.5625 -4.953125 Z M 10.390625 -4.953125 C 10.390625 -3.347656 9.960938 -2.09375 9.109375 -1.1875 C 8.265625 -0.28125 7.085938 0.171875 5.578125 0.171875 C 4.628906 0.171875 3.789062 -0.03125 3.0625 -0.4375 C 2.34375 -0.851562 1.785156 -1.453125 1.390625 -2.234375 C 1.003906 -3.015625 0.8125 -3.921875 0.8125 -4.953125 C 0.8125 -6.566406 1.234375 -7.820312 2.078125 -8.71875 C 2.921875 -9.613281 4.101562 -10.0625 5.625 -10.0625 C 6.570312 -10.0625 7.40625 -9.851562 8.125 -9.4375 C 8.851562 -9.03125 9.410156 -8.441406 9.796875 -7.671875 C 10.191406 -6.898438 10.390625 -5.992188 10.390625 -4.953125 Z M 10.390625 -4.953125 "/></g></g></g><g fill="#68bc5a" fill-opacity="1"><g transform="translate(259.070894, 32.523189)"><g><path d="M 10.53125 0 L 7.84375 0 L 7.84375 -5.765625 C 7.84375 -6.484375 7.710938 -7.019531 7.453125 -7.375 C 7.203125 -7.726562 6.800781 -7.90625 6.25 -7.90625 C 5.488281 -7.90625 4.941406 -7.648438 4.609375 -7.140625 C 4.273438 -6.640625 4.109375 -5.804688 4.109375 -4.640625 L 4.109375 0 L 1.40625 0 L 1.40625 -9.875 L 3.46875 -9.875 L 3.828125 -8.609375 L 3.984375 -8.609375 C 4.285156 -9.085938 4.695312 -9.445312 5.21875 -9.6875 C 5.75 -9.9375 6.351562 -10.0625 7.03125 -10.0625 C 8.175781 -10.0625 9.046875 -9.75 9.640625 -9.125 C 10.234375 -8.507812 10.53125 -7.613281 10.53125 -6.4375 Z M 10.53125 0 "/></g></g></g><g fill="#68bc5a" fill-opacity="1"><g transform="translate(270.953436, 32.523189)"><g><path d="M 8.3125 -2.9375 C 8.3125 -1.914062 7.957031 -1.140625 7.25 -0.609375 C 6.539062 -0.0859375 5.488281 0.171875 4.09375 0.171875 C 3.375 0.171875 2.757812 0.125 2.25 0.03125 C 1.75 -0.0625 1.273438 -0.203125 0.828125 -0.390625 L 0.828125 -2.625 C 1.328125 -2.382812 1.890625 -2.1875 2.515625 -2.03125 C 3.148438 -1.875 3.703125 -1.796875 4.171875 -1.796875 C 5.148438 -1.796875 5.640625 -2.078125 5.640625 -2.640625 C 5.640625 -2.847656 5.570312 -3.019531 5.4375 -3.15625 C 5.3125 -3.289062 5.085938 -3.441406 4.765625 -3.609375 C 4.453125 -3.773438 4.03125 -3.972656 3.5 -4.203125 C 2.75 -4.515625 2.191406 -4.804688 1.828125 -5.078125 C 1.472656 -5.347656 1.210938 -5.65625 1.046875 -6 C 0.890625 -6.351562 0.8125 -6.789062 0.8125 -7.3125 C 0.8125 -8.1875 1.148438 -8.863281 1.828125 -9.34375 C 2.515625 -9.820312 3.484375 -10.0625 4.734375 -10.0625 C 5.921875 -10.0625 7.078125 -9.800781 8.203125 -9.28125 L 7.390625 -7.34375 C 6.890625 -7.550781 6.425781 -7.722656 6 -7.859375 C 5.570312 -7.992188 5.132812 -8.0625 4.6875 -8.0625 C 3.882812 -8.0625 3.484375 -7.847656 3.484375 -7.421875 C 3.484375 -7.179688 3.613281 -6.972656 3.875 -6.796875 C 4.132812 -6.617188 4.695312 -6.351562 5.5625 -6 C 6.332031 -5.695312 6.894531 -5.410156 7.25 -5.140625 C 7.613281 -4.867188 7.878906 -4.554688 8.046875 -4.203125 C 8.222656 -3.847656 8.3125 -3.425781 8.3125 -2.9375 Z M 8.3125 -2.9375 "/></g></g></g><g fill="#808080" fill-opacity="1"><g transform="translate(253.069586, 40.185345)"><g><path d="M 3.796875 -1.46875 C 3.796875 -0.988281 3.625 -0.609375 3.28125 -0.328125 C 2.9375 -0.0546875 2.457031 0.078125 1.84375 0.078125 C 1.28125 0.078125 0.78125 -0.03125 0.34375 -0.25 L 0.34375 -1.296875 C 0.695312 -1.128906 1 -1.015625 1.25 -0.953125 C 1.5 -0.890625 1.726562 -0.859375 1.9375 -0.859375 C 2.175781 -0.859375 2.363281 -0.90625 2.5 -1 C 2.632812 -1.09375 2.703125 -1.234375 2.703125 -1.421875 C 2.703125 -1.523438 2.671875 -1.613281 2.609375 -1.6875 C 2.554688 -1.769531 2.472656 -1.847656 2.359375 -1.921875 C 2.242188 -2.003906 2.015625 -2.128906 1.671875 -2.296875 C 1.347656 -2.441406 1.101562 -2.582031 0.9375 -2.71875 C 0.769531 -2.863281 0.640625 -3.03125 0.546875 -3.21875 C 0.453125 -3.40625 0.40625 -3.625 0.40625 -3.875 C 0.40625 -4.34375 0.5625 -4.710938 0.875 -4.984375 C 1.195312 -5.253906 1.640625 -5.390625 2.203125 -5.390625 C 2.472656 -5.390625 2.734375 -5.351562 2.984375 -5.28125 C 3.234375 -5.21875 3.5 -5.128906 3.78125 -5.015625 L 3.40625 -4.140625 C 3.125 -4.253906 2.890625 -4.332031 2.703125 -4.375 C 2.523438 -4.425781 2.347656 -4.453125 2.171875 -4.453125 C 1.953125 -4.453125 1.785156 -4.398438 1.671875 -4.296875 C 1.554688 -4.203125 1.5 -4.070312 1.5 -3.90625 C 1.5 -3.8125 1.519531 -3.726562 1.5625 -3.65625 C 1.613281 -3.582031 1.6875 -3.507812 1.78125 -3.4375 C 1.882812 -3.363281 2.125 -3.238281 2.5 -3.0625 C 3 -2.820312 3.335938 -2.582031 3.515625 -2.34375 C 3.703125 -2.113281 3.796875 -1.820312 3.796875 -1.46875 Z M 3.796875 -1.46875 "/></g></g></g><g fill="#808080" fill-opacity="1"><g transform="translate(257.162664, 40.185345)"><g><path d="M 0 -4.0625 L 1.21875 -4.0625 L 1.984375 -1.78125 C 2.046875 -1.582031 2.085938 -1.347656 2.109375 -1.078125 L 2.140625 -1.078125 C 2.160156 -1.328125 2.210938 -1.5625 2.296875 -1.78125 L 3.046875 -4.0625 L 4.234375 -4.0625 L 2.515625 0.515625 C 2.359375 0.941406 2.132812 1.257812 1.84375 1.46875 C 1.550781 1.675781 1.207031 1.78125 0.8125 1.78125 C 0.625 1.78125 0.4375 1.757812 0.25 1.71875 L 0.25 0.84375 C 0.382812 0.875 0.53125 0.890625 0.6875 0.890625 C 0.882812 0.890625 1.054688 0.828125 1.203125 0.703125 C 1.347656 0.585938 1.460938 0.410156 1.546875 0.171875 L 1.609375 -0.03125 Z M 0 -4.0625 "/></g></g></g><g fill="#808080" fill-opacity="1"><g transform="translate(261.390012, 40.185345)"><g><path d="M 3.40625 -1.203125 C 3.40625 -0.785156 3.257812 -0.46875 2.96875 -0.25 C 2.6875 -0.03125 2.257812 0.078125 1.6875 0.078125 C 1.382812 0.078125 1.128906 0.0546875 0.921875 0.015625 C 0.710938 -0.0234375 0.519531 -0.0820312 0.34375 -0.15625 L 0.34375 -1.078125 C 0.550781 -0.984375 0.78125 -0.898438 1.03125 -0.828125 C 1.289062 -0.765625 1.519531 -0.734375 1.71875 -0.734375 C 2.125 -0.734375 2.328125 -0.847656 2.328125 -1.078125 C 2.328125 -1.171875 2.296875 -1.242188 2.234375 -1.296875 C 2.179688 -1.347656 2.085938 -1.410156 1.953125 -1.484375 C 1.828125 -1.554688 1.65625 -1.632812 1.4375 -1.71875 C 1.125 -1.851562 0.894531 -1.972656 0.75 -2.078125 C 0.601562 -2.191406 0.492188 -2.320312 0.421875 -2.46875 C 0.359375 -2.613281 0.328125 -2.789062 0.328125 -3 C 0.328125 -3.363281 0.46875 -3.644531 0.75 -3.84375 C 1.03125 -4.039062 1.425781 -4.140625 1.9375 -4.140625 C 2.425781 -4.140625 2.90625 -4.03125 3.375 -3.8125 L 3.03125 -3.015625 C 2.832031 -3.109375 2.644531 -3.179688 2.46875 -3.234375 C 2.289062 -3.285156 2.109375 -3.3125 1.921875 -3.3125 C 1.597656 -3.3125 1.4375 -3.222656 1.4375 -3.046875 C 1.4375 -2.953125 1.488281 -2.867188 1.59375 -2.796875 C 1.695312 -2.722656 1.925781 -2.613281 2.28125 -2.46875 C 2.601562 -2.34375 2.835938 -2.222656 2.984375 -2.109375 C 3.128906 -1.992188 3.234375 -1.863281 3.296875 -1.71875 C 3.367188 -1.570312 3.40625 -1.398438 3.40625 -1.203125 Z M 3.40625 -1.203125 "/></g></g></g><g fill="#808080" fill-opacity="1"><g transform="translate(265.083943, 40.185345)"><g><path d="M 2.296875 -0.8125 C 2.484375 -0.8125 2.710938 -0.851562 2.984375 -0.9375 L 2.984375 -0.109375 C 2.710938 0.015625 2.375 0.078125 1.96875 0.078125 C 1.53125 0.078125 1.207031 -0.03125 1 -0.25 C 0.800781 -0.476562 0.703125 -0.816406 0.703125 -1.265625 L 0.703125 -3.234375 L 0.171875 -3.234375 L 0.171875 -3.703125 L 0.78125 -4.0625 L 1.09375 -4.921875 L 1.8125 -4.921875 L 1.8125 -4.0625 L 2.9375 -4.0625 L 2.9375 -3.234375 L 1.8125 -3.234375 L 1.8125 -1.265625 C 1.8125 -1.109375 1.851562 -0.992188 1.9375 -0.921875 C 2.03125 -0.847656 2.148438 -0.8125 2.296875 -0.8125 Z M 2.296875 -0.8125 "/></g></g></g><g fill="#808080" fill-opacity="1"><g transform="translate(268.309792, 40.185345)"><g><path d="M 2.265625 -3.34375 C 2.023438 -3.34375 1.835938 -3.269531 1.703125 -3.125 C 1.578125 -2.976562 1.503906 -2.765625 1.484375 -2.484375 L 3.03125 -2.484375 C 3.03125 -2.765625 2.957031 -2.976562 2.8125 -3.125 C 2.675781 -3.269531 2.492188 -3.34375 2.265625 -3.34375 Z M 2.421875 0.078125 C 1.765625 0.078125 1.25 -0.101562 0.875 -0.46875 C 0.507812 -0.832031 0.328125 -1.34375 0.328125 -2 C 0.328125 -2.675781 0.5 -3.203125 0.84375 -3.578125 C 1.1875 -3.953125 1.65625 -4.140625 2.25 -4.140625 C 2.820312 -4.140625 3.269531 -3.972656 3.59375 -3.640625 C 3.914062 -3.316406 4.078125 -2.867188 4.078125 -2.296875 L 4.078125 -1.75 L 1.453125 -1.75 C 1.460938 -1.4375 1.554688 -1.191406 1.734375 -1.015625 C 1.910156 -0.835938 2.15625 -0.75 2.46875 -0.75 C 2.71875 -0.75 2.945312 -0.773438 3.15625 -0.828125 C 3.375 -0.878906 3.601562 -0.960938 3.84375 -1.078125 L 3.84375 -0.21875 C 3.65625 -0.113281 3.445312 -0.0390625 3.21875 0 C 3 0.0507812 2.734375 0.078125 2.421875 0.078125 Z M 2.421875 0.078125 "/></g></g></g><g fill="#808080" fill-opacity="1"><g transform="translate(272.700417, 40.185345)"><g><path d="M 4.21875 0 L 3.109375 0 L 3.109375 -2.375 C 3.109375 -2.664062 3.054688 -2.882812 2.953125 -3.03125 C 2.859375 -3.175781 2.707031 -3.25 2.5 -3.25 C 2.21875 -3.25 2.007812 -3.144531 1.875 -2.9375 C 1.75 -2.726562 1.6875 -2.382812 1.6875 -1.90625 L 1.6875 0 L 0.578125 0 L 0.578125 -4.0625 L 1.421875 -4.0625 L 1.578125 -3.546875 L 1.640625 -3.546875 C 1.742188 -3.734375 1.898438 -3.878906 2.109375 -3.984375 C 2.316406 -4.085938 2.550781 -4.140625 2.8125 -4.140625 C 3.425781 -4.140625 3.835938 -3.941406 4.046875 -3.546875 L 4.15625 -3.546875 C 4.257812 -3.734375 4.414062 -3.878906 4.625 -3.984375 C 4.84375 -4.085938 5.082031 -4.140625 5.34375 -4.140625 C 5.8125 -4.140625 6.160156 -4.019531 6.390625 -3.78125 C 6.628906 -3.539062 6.75 -3.160156 6.75 -2.640625 L 6.75 0 L 5.640625 0 L 5.640625 -2.375 C 5.640625 -2.664062 5.585938 -2.882812 5.484375 -3.03125 C 5.390625 -3.175781 5.238281 -3.25 5.03125 -3.25 C 4.757812 -3.25 4.554688 -3.148438 4.421875 -2.953125 C 4.285156 -2.765625 4.21875 -2.457031 4.21875 -2.03125 Z M 4.21875 0 "/></g></g></g></svg>