<svg xmlns="http://www.w3.org/2000/svg" xmlns:xlink="http://www.w3.org/1999/xlink" width="400" zoomAndPan="magnify" viewBox="0 0 300 74.999997" height="100" preserveAspectRatio="xMidYMid meet" version="1.0"><defs><g/></defs><rect x="-30" width="360" fill="#ffffff" y="-7.5" height="89.999996" fill-opacity="1"/><rect x="-30" width="360" fill="#ffffff" y="-7.5" height="89.999996" fill-opacity="1"/><g fill="#68bc5a" fill-opacity="1"><g transform="translate(3.99602, 49.896001)"><g><path d="M 31.859375 0 L 23.375 0 L 9.703125 -23.78125 L 9.5 -23.78125 C 9.78125 -19.582031 9.921875 -16.585938 9.921875 -14.796875 L 9.921875 0 L 3.953125 0 L 3.953125 -31.4375 L 12.359375 -31.4375 L 26.03125 -7.890625 L 26.171875 -7.890625 C 25.960938 -11.972656 25.859375 -14.863281 25.859375 -16.5625 L 25.859375 -31.4375 L 31.859375 -31.4375 Z M 31.859375 0 "/></g></g></g><g fill="#68bc5a" fill-opacity="1"><g transform="translate(39.793225, 49.896001)"><g><path d="M 8.671875 -12.0625 C 8.671875 -9.6875 9.0625 -7.890625 9.84375 -6.671875 C 10.625 -5.453125 11.894531 -4.84375 13.65625 -4.84375 C 15.40625 -4.84375 16.660156 -5.445312 17.421875 -6.65625 C 18.191406 -7.863281 18.578125 -9.664062 18.578125 -12.0625 C 18.578125 -14.445312 18.191406 -16.234375 17.421875 -17.421875 C 16.648438 -18.609375 15.378906 -19.203125 13.609375 -19.203125 C 11.859375 -19.203125 10.597656 -18.609375 9.828125 -17.421875 C 9.054688 -16.242188 8.671875 -14.457031 8.671875 -12.0625 Z M 25.296875 -12.0625 C 25.296875 -8.144531 24.257812 -5.082031 22.1875 -2.875 C 20.125 -0.664062 17.253906 0.4375 13.578125 0.4375 C 11.265625 0.4375 9.222656 -0.0664062 7.453125 -1.078125 C 5.691406 -2.097656 4.335938 -3.550781 3.390625 -5.4375 C 2.453125 -7.332031 1.984375 -9.539062 1.984375 -12.0625 C 1.984375 -15.988281 3.003906 -19.039062 5.046875 -21.21875 C 7.097656 -23.40625 9.984375 -24.5 13.703125 -24.5 C 16.003906 -24.5 18.035156 -23.992188 19.796875 -22.984375 C 21.566406 -21.984375 22.925781 -20.539062 23.875 -18.65625 C 24.820312 -16.78125 25.296875 -14.582031 25.296875 -12.0625 Z M 25.296875 -12.0625 "/></g></g></g><g fill="#68bc5a" fill-opacity="1"><g transform="translate(67.055001, 49.896001)"><g><path d="M 13.578125 -4.796875 C 14.722656 -4.796875 16.097656 -5.046875 17.703125 -5.546875 L 17.703125 -0.671875 C 16.066406 0.0664062 14.054688 0.4375 11.671875 0.4375 C 9.054688 0.4375 7.148438 -0.222656 5.953125 -1.546875 C 4.753906 -2.878906 4.15625 -4.875 4.15625 -7.53125 L 4.15625 -19.125 L 1.015625 -19.125 L 1.015625 -21.890625 L 4.625 -24.09375 L 6.515625 -29.15625 L 10.703125 -29.15625 L 10.703125 -24.046875 L 17.4375 -24.046875 L 17.4375 -19.125 L 10.703125 -19.125 L 10.703125 -7.53125 C 10.703125 -6.59375 10.960938 -5.898438 11.484375 -5.453125 C 12.015625 -5.015625 12.710938 -4.796875 13.578125 -4.796875 Z M 13.578125 -4.796875 "/></g></g></g><g fill="#68bc5a" fill-opacity="1"><g transform="translate(86.168343, 49.896001)"><g><path d="M 3.15625 -30.265625 C 3.15625 -32.398438 4.347656 -33.46875 6.734375 -33.46875 C 9.109375 -33.46875 10.296875 -32.398438 10.296875 -30.265625 C 10.296875 -29.242188 10 -28.445312 9.40625 -27.875 C 8.8125 -27.3125 7.921875 -27.03125 6.734375 -27.03125 C 4.347656 -27.03125 3.15625 -28.109375 3.15625 -30.265625 Z M 10 0 L 3.4375 0 L 3.4375 -24.046875 L 10 -24.046875 Z M 10 0 "/></g></g></g><g fill="#68bc5a" fill-opacity="1"><g transform="translate(99.605733, 49.896001)"><g><path d="M 16.734375 -19.125 L 11.0625 -19.125 L 11.0625 0 L 4.5 0 L 4.5 -19.125 L 0.875 -19.125 L 0.875 -22.28125 L 4.5 -24.046875 L 4.5 -25.8125 C 4.5 -28.550781 5.171875 -30.550781 6.515625 -31.8125 C 7.859375 -33.070312 10.015625 -33.703125 12.984375 -33.703125 C 15.253906 -33.703125 17.269531 -33.363281 19.03125 -32.6875 L 17.359375 -27.875 C 16.035156 -28.289062 14.816406 -28.5 13.703125 -28.5 C 12.765625 -28.5 12.085938 -28.222656 11.671875 -27.671875 C 11.265625 -27.117188 11.0625 -26.410156 11.0625 -25.546875 L 11.0625 -24.046875 L 16.734375 -24.046875 Z M 16.734375 -19.125 "/></g></g></g><g fill="#68bc5a" fill-opacity="1"><g transform="translate(116.655092, 49.896001)"><g><path d="M 3.15625 -30.265625 C 3.15625 -32.398438 4.347656 -33.46875 6.734375 -33.46875 C 9.109375 -33.46875 10.296875 -32.398438 10.296875 -30.265625 C 10.296875 -29.242188 10 -28.445312 9.40625 -27.875 C 8.8125 -27.3125 7.921875 -27.03125 6.734375 -27.03125 C 4.347656 -27.03125 3.15625 -28.109375 3.15625 -30.265625 Z M 10 0 L 3.4375 0 L 3.4375 -24.046875 L 10 -24.046875 Z M 10 0 "/></g></g></g><g fill="#68bc5a" fill-opacity="1"><g transform="translate(130.092482, 49.896001)"><g><path d="M 13.203125 0.4375 C 5.722656 0.4375 1.984375 -3.671875 1.984375 -11.890625 C 1.984375 -15.972656 3 -19.09375 5.03125 -21.25 C 7.070312 -23.414062 9.988281 -24.5 13.78125 -24.5 C 16.5625 -24.5 19.054688 -23.953125 21.265625 -22.859375 L 19.328125 -17.78125 C 18.296875 -18.195312 17.335938 -18.535156 16.453125 -18.796875 C 15.566406 -19.066406 14.675781 -19.203125 13.78125 -19.203125 C 10.375 -19.203125 8.671875 -16.78125 8.671875 -11.9375 C 8.671875 -7.226562 10.375 -4.875 13.78125 -4.875 C 15.039062 -4.875 16.207031 -5.039062 17.28125 -5.375 C 18.363281 -5.71875 19.441406 -6.25 20.515625 -6.96875 L 20.515625 -1.359375 C 19.453125 -0.679688 18.378906 -0.210938 17.296875 0.046875 C 16.210938 0.304688 14.847656 0.4375 13.203125 0.4375 Z M 13.203125 0.4375 "/></g></g></g><g fill="#68bc5a" fill-opacity="1"><g transform="translate(152.731795, 49.896001)"><g><path d="M 18.71875 0 L 17.4375 -3.265625 L 17.265625 -3.265625 C 16.160156 -1.878906 15.023438 -0.914062 13.859375 -0.375 C 12.691406 0.164062 11.171875 0.4375 9.296875 0.4375 C 6.984375 0.4375 5.160156 -0.222656 3.828125 -1.546875 C 2.503906 -2.867188 1.84375 -4.75 1.84375 -7.1875 C 1.84375 -9.738281 2.734375 -11.617188 4.515625 -12.828125 C 6.304688 -14.035156 9.003906 -14.707031 12.609375 -14.84375 L 16.78125 -14.96875 L 16.78125 -16.015625 C 16.78125 -18.453125 15.53125 -19.671875 13.03125 -19.671875 C 11.113281 -19.671875 8.859375 -19.09375 6.265625 -17.9375 L 4.09375 -22.375 C 6.851562 -23.820312 9.921875 -24.546875 13.296875 -24.546875 C 16.515625 -24.546875 18.984375 -23.84375 20.703125 -22.4375 C 22.429688 -21.03125 23.296875 -18.890625 23.296875 -16.015625 L 23.296875 0 Z M 16.78125 -11.140625 L 14.234375 -11.0625 C 12.328125 -11 10.90625 -10.648438 9.96875 -10.015625 C 9.039062 -9.390625 8.578125 -8.429688 8.578125 -7.140625 C 8.578125 -5.285156 9.640625 -4.359375 11.765625 -4.359375 C 13.285156 -4.359375 14.5 -4.796875 15.40625 -5.671875 C 16.320312 -6.546875 16.78125 -7.707031 16.78125 -9.15625 Z M 16.78125 -11.140625 "/></g></g></g><g fill="#68bc5a" fill-opacity="1"><g transform="translate(179.327076, 49.896001)"><g><path d="M 13.578125 -4.796875 C 14.722656 -4.796875 16.097656 -5.046875 17.703125 -5.546875 L 17.703125 -0.671875 C 16.066406 0.0664062 14.054688 0.4375 11.671875 0.4375 C 9.054688 0.4375 7.148438 -0.222656 5.953125 -1.546875 C 4.753906 -2.878906 4.15625 -4.875 4.15625 -7.53125 L 4.15625 -19.125 L 1.015625 -19.125 L 1.015625 -21.890625 L 4.625 -24.09375 L 6.515625 -29.15625 L 10.703125 -29.15625 L 10.703125 -24.046875 L 17.4375 -24.046875 L 17.4375 -19.125 L 10.703125 -19.125 L 10.703125 -7.53125 C 10.703125 -6.59375 10.960938 -5.898438 11.484375 -5.453125 C 12.015625 -5.015625 12.710938 -4.796875 13.578125 -4.796875 Z M 13.578125 -4.796875 "/></g></g></g><g fill="#68bc5a" fill-opacity="1"><g transform="translate(198.440419, 49.896001)"><g><path d="M 3.15625 -30.265625 C 3.15625 -32.398438 4.347656 -33.46875 6.734375 -33.46875 C 9.109375 -33.46875 10.296875 -32.398438 10.296875 -30.265625 C 10.296875 -29.242188 10 -28.445312 9.40625 -27.875 C 8.8125 -27.3125 7.921875 -27.03125 6.734375 -27.03125 C 4.347656 -27.03125 3.15625 -28.109375 3.15625 -30.265625 Z M 10 0 L 3.4375 0 L 3.4375 -24.046875 L 10 -24.046875 Z M 10 0 "/></g></g></g><g fill="#68bc5a" fill-opacity="1"><g transform="translate(211.877808, 49.896001)"><g><path d="M 8.671875 -12.0625 C 8.671875 -9.6875 9.0625 -7.890625 9.84375 -6.671875 C 10.625 -5.453125 11.894531 -4.84375 13.65625 -4.84375 C 15.40625 -4.84375 16.660156 -5.445312 17.421875 -6.65625 C 18.191406 -7.863281 18.578125 -9.664062 18.578125 -12.0625 C 18.578125 -14.445312 18.191406 -16.234375 17.421875 -17.421875 C 16.648438 -18.609375 15.378906 -19.203125 13.609375 -19.203125 C 11.859375 -19.203125 10.597656 -18.609375 9.828125 -17.421875 C 9.054688 -16.242188 8.671875 -14.457031 8.671875 -12.0625 Z M 25.296875 -12.0625 C 25.296875 -8.144531 24.257812 -5.082031 22.1875 -2.875 C 20.125 -0.664062 17.253906 0.4375 13.578125 0.4375 C 11.265625 0.4375 9.222656 -0.0664062 7.453125 -1.078125 C 5.691406 -2.097656 4.335938 -3.550781 3.390625 -5.4375 C 2.453125 -7.332031 1.984375 -9.539062 1.984375 -12.0625 C 1.984375 -15.988281 3.003906 -19.039062 5.046875 -21.21875 C 7.097656 -23.40625 9.984375 -24.5 13.703125 -24.5 C 16.003906 -24.5 18.035156 -23.992188 19.796875 -22.984375 C 21.566406 -21.984375 22.925781 -20.539062 23.875 -18.65625 C 24.820312 -16.78125 25.296875 -14.582031 25.296875 -12.0625 Z M 25.296875 -12.0625 "/></g></g></g><g fill="#68bc5a" fill-opacity="1"><g transform="translate(239.139584, 49.896001)"><g><path d="M 25.640625 0 L 19.078125 0 L 19.078125 -14.046875 C 19.078125 -15.773438 18.769531 -17.070312 18.15625 -17.9375 C 17.539062 -18.8125 16.554688 -19.25 15.203125 -19.25 C 13.367188 -19.25 12.039062 -18.632812 11.21875 -17.40625 C 10.40625 -16.1875 10 -14.15625 10 -11.3125 L 10 0 L 3.4375 0 L 3.4375 -24.046875 L 8.453125 -24.046875 L 9.328125 -20.96875 L 9.703125 -20.96875 C 10.429688 -22.132812 11.4375 -23.015625 12.71875 -23.609375 C 14 -24.203125 15.457031 -24.5 17.09375 -24.5 C 19.894531 -24.5 22.019531 -23.738281 23.46875 -22.21875 C 24.914062 -20.707031 25.640625 -18.523438 25.640625 -15.671875 Z M 25.640625 0 "/></g></g></g><g fill="#68bc5a" fill-opacity="1"><g transform="translate(268.078346, 49.896001)"><g><path d="M 20.21875 -7.140625 C 20.21875 -4.671875 19.359375 -2.789062 17.640625 -1.5 C 15.929688 -0.207031 13.367188 0.4375 9.953125 0.4375 C 8.203125 0.4375 6.710938 0.316406 5.484375 0.078125 C 4.253906 -0.160156 3.097656 -0.507812 2.015625 -0.96875 L 2.015625 -6.390625 C 3.234375 -5.816406 4.609375 -5.332031 6.140625 -4.9375 C 7.671875 -4.550781 9.015625 -4.359375 10.171875 -4.359375 C 12.554688 -4.359375 13.75 -5.050781 13.75 -6.4375 C 13.75 -6.945312 13.585938 -7.363281 13.265625 -7.6875 C 12.953125 -8.007812 12.40625 -8.375 11.625 -8.78125 C 10.851562 -9.195312 9.820312 -9.675781 8.53125 -10.21875 C 6.6875 -10.988281 5.328125 -11.703125 4.453125 -12.359375 C 3.585938 -13.023438 2.957031 -13.785156 2.5625 -14.640625 C 2.175781 -15.492188 1.984375 -16.539062 1.984375 -17.78125 C 1.984375 -19.914062 2.8125 -21.566406 4.46875 -22.734375 C 6.125 -23.910156 8.46875 -24.5 11.5 -24.5 C 14.394531 -24.5 17.210938 -23.867188 19.953125 -22.609375 L 17.984375 -17.875 C 16.773438 -18.382812 15.644531 -18.804688 14.59375 -19.140625 C 13.550781 -19.472656 12.488281 -19.640625 11.40625 -19.640625 C 9.46875 -19.640625 8.5 -19.113281 8.5 -18.0625 C 8.5 -17.476562 8.804688 -16.96875 9.421875 -16.53125 C 10.046875 -16.101562 11.414062 -15.46875 13.53125 -14.625 C 15.40625 -13.863281 16.78125 -13.148438 17.65625 -12.484375 C 18.53125 -11.828125 19.175781 -11.066406 19.59375 -10.203125 C 20.007812 -9.347656 20.21875 -8.328125 20.21875 -7.140625 Z M 20.21875 -7.140625 "/></g></g></g><g fill="#808080" fill-opacity="1"><g transform="translate(224.523943, 70.018058)"><g><path d="M 9.265625 -3.59375 C 9.265625 -2.425781 8.84375 -1.503906 8 -0.828125 C 7.15625 -0.160156 5.984375 0.171875 4.484375 0.171875 C 3.109375 0.171875 1.890625 -0.0820312 0.828125 -0.59375 L 0.828125 -3.140625 C 1.703125 -2.753906 2.441406 -2.484375 3.046875 -2.328125 C 3.648438 -2.171875 4.203125 -2.09375 4.703125 -2.09375 C 5.304688 -2.09375 5.765625 -2.207031 6.078125 -2.4375 C 6.398438 -2.664062 6.5625 -3.003906 6.5625 -3.453125 C 6.5625 -3.710938 6.488281 -3.941406 6.34375 -4.140625 C 6.207031 -4.335938 6.003906 -4.523438 5.734375 -4.703125 C 5.460938 -4.890625 4.90625 -5.179688 4.0625 -5.578125 C 3.269531 -5.953125 2.675781 -6.304688 2.28125 -6.640625 C 1.882812 -6.984375 1.566406 -7.382812 1.328125 -7.84375 C 1.097656 -8.300781 0.984375 -8.832031 0.984375 -9.4375 C 0.984375 -10.582031 1.367188 -11.476562 2.140625 -12.125 C 2.921875 -12.78125 3.992188 -13.109375 5.359375 -13.109375 C 6.023438 -13.109375 6.664062 -13.03125 7.28125 -12.875 C 7.894531 -12.71875 8.535156 -12.492188 9.203125 -12.203125 L 8.3125 -10.078125 C 7.625 -10.359375 7.050781 -10.550781 6.59375 -10.65625 C 6.144531 -10.769531 5.703125 -10.828125 5.265625 -10.828125 C 4.742188 -10.828125 4.34375 -10.707031 4.0625 -10.46875 C 3.789062 -10.226562 3.65625 -9.910156 3.65625 -9.515625 C 3.65625 -9.273438 3.710938 -9.066406 3.828125 -8.890625 C 3.941406 -8.710938 4.117188 -8.539062 4.359375 -8.375 C 4.609375 -8.207031 5.1875 -7.90625 6.09375 -7.46875 C 7.300781 -6.882812 8.128906 -6.300781 8.578125 -5.71875 C 9.035156 -5.144531 9.265625 -4.4375 9.265625 -3.59375 Z M 9.265625 -3.59375 "/></g></g></g><g fill="#808080" fill-opacity="1"><g transform="translate(234.492231, 70.018058)"><g><path d="M 0 -9.890625 L 2.953125 -9.890625 L 4.8125 -4.328125 C 4.976562 -3.835938 5.085938 -3.265625 5.140625 -2.609375 L 5.203125 -2.609375 C 5.265625 -3.210938 5.390625 -3.785156 5.578125 -4.328125 L 7.40625 -9.890625 L 10.296875 -9.890625 L 6.125 1.265625 C 5.738281 2.296875 5.1875 3.066406 4.46875 3.578125 C 3.757812 4.085938 2.929688 4.34375 1.984375 4.34375 C 1.523438 4.34375 1.070312 4.296875 0.625 4.203125 L 0.625 2.0625 C 0.945312 2.132812 1.300781 2.171875 1.6875 2.171875 C 2.15625 2.171875 2.566406 2.023438 2.921875 1.734375 C 3.285156 1.441406 3.566406 1.003906 3.765625 0.421875 L 3.921875 -0.078125 Z M 0 -9.890625 "/></g></g></g><g fill="#808080" fill-opacity="1"><g transform="translate(244.78752, 70.018058)"><g><path d="M 8.3125 -2.9375 C 8.3125 -1.925781 7.957031 -1.15625 7.25 -0.625 C 6.550781 -0.09375 5.5 0.171875 4.09375 0.171875 C 3.375 0.171875 2.757812 0.125 2.25 0.03125 C 1.75 -0.0625 1.273438 -0.203125 0.828125 -0.390625 L 0.828125 -2.625 C 1.328125 -2.382812 1.890625 -2.1875 2.515625 -2.03125 C 3.148438 -1.875 3.707031 -1.796875 4.1875 -1.796875 C 5.164062 -1.796875 5.65625 -2.078125 5.65625 -2.640625 C 5.65625 -2.859375 5.585938 -3.03125 5.453125 -3.15625 C 5.328125 -3.289062 5.101562 -3.441406 4.78125 -3.609375 C 4.46875 -3.773438 4.046875 -3.972656 3.515625 -4.203125 C 2.753906 -4.515625 2.191406 -4.804688 1.828125 -5.078125 C 1.472656 -5.347656 1.210938 -5.660156 1.046875 -6.015625 C 0.890625 -6.367188 0.8125 -6.800781 0.8125 -7.3125 C 0.8125 -8.1875 1.148438 -8.863281 1.828125 -9.34375 C 2.515625 -9.832031 3.484375 -10.078125 4.734375 -10.078125 C 5.921875 -10.078125 7.078125 -9.816406 8.203125 -9.296875 L 7.390625 -7.34375 C 6.898438 -7.5625 6.4375 -7.738281 6 -7.875 C 5.570312 -8.007812 5.132812 -8.078125 4.6875 -8.078125 C 3.894531 -8.078125 3.5 -7.859375 3.5 -7.421875 C 3.5 -7.179688 3.625 -6.972656 3.875 -6.796875 C 4.132812 -6.617188 4.695312 -6.359375 5.5625 -6.015625 C 6.332031 -5.703125 6.894531 -5.410156 7.25 -5.140625 C 7.613281 -4.867188 7.878906 -4.554688 8.046875 -4.203125 C 8.222656 -3.847656 8.3125 -3.425781 8.3125 -2.9375 Z M 8.3125 -2.9375 "/></g></g></g><g fill="#808080" fill-opacity="1"><g transform="translate(253.783724, 70.018058)"><g><path d="M 5.578125 -1.96875 C 6.046875 -1.96875 6.613281 -2.070312 7.28125 -2.28125 L 7.28125 -0.28125 C 6.601562 0.0195312 5.773438 0.171875 4.796875 0.171875 C 3.722656 0.171875 2.9375 -0.0976562 2.4375 -0.640625 C 1.945312 -1.179688 1.703125 -2 1.703125 -3.09375 L 1.703125 -7.859375 L 0.421875 -7.859375 L 0.421875 -9 L 1.90625 -9.90625 L 2.671875 -11.984375 L 4.40625 -11.984375 L 4.40625 -9.890625 L 7.171875 -9.890625 L 7.171875 -7.859375 L 4.40625 -7.859375 L 4.40625 -3.09375 C 4.40625 -2.707031 4.507812 -2.421875 4.71875 -2.234375 C 4.9375 -2.054688 5.222656 -1.96875 5.578125 -1.96875 Z M 5.578125 -1.96875 "/></g></g></g><g fill="#808080" fill-opacity="1"><g transform="translate(261.639963, 70.018058)"><g><path d="M 5.515625 -8.15625 C 4.941406 -8.15625 4.488281 -7.972656 4.15625 -7.609375 C 3.832031 -7.242188 3.648438 -6.726562 3.609375 -6.0625 L 7.390625 -6.0625 C 7.378906 -6.726562 7.203125 -7.242188 6.859375 -7.609375 C 6.523438 -7.972656 6.078125 -8.15625 5.515625 -8.15625 Z M 5.890625 0.171875 C 4.296875 0.171875 3.050781 -0.265625 2.15625 -1.140625 C 1.257812 -2.015625 0.8125 -3.257812 0.8125 -4.875 C 0.8125 -6.53125 1.222656 -7.8125 2.046875 -8.71875 C 2.878906 -9.625 4.023438 -10.078125 5.484375 -10.078125 C 6.890625 -10.078125 7.976562 -9.675781 8.75 -8.875 C 9.53125 -8.082031 9.921875 -6.984375 9.921875 -5.578125 L 9.921875 -4.265625 L 3.546875 -4.265625 C 3.578125 -3.503906 3.800781 -2.90625 4.21875 -2.46875 C 4.644531 -2.039062 5.242188 -1.828125 6.015625 -1.828125 C 6.609375 -1.828125 7.171875 -1.890625 7.703125 -2.015625 C 8.234375 -2.140625 8.785156 -2.335938 9.359375 -2.609375 L 9.359375 -0.515625 C 8.890625 -0.285156 8.382812 -0.113281 7.84375 0 C 7.3125 0.113281 6.660156 0.171875 5.890625 0.171875 Z M 5.890625 0.171875 "/></g></g></g><g fill="#808080" fill-opacity="1"><g transform="translate(272.332897, 70.018058)"><g><path d="M 10.265625 0 L 7.5625 0 L 7.5625 -5.78125 C 7.5625 -6.488281 7.441406 -7.019531 7.203125 -7.375 C 6.972656 -7.726562 6.597656 -7.90625 6.078125 -7.90625 C 5.390625 -7.90625 4.890625 -7.648438 4.578125 -7.140625 C 4.265625 -6.640625 4.109375 -5.8125 4.109375 -4.65625 L 4.109375 0 L 1.421875 0 L 1.421875 -9.890625 L 3.46875 -9.890625 L 3.84375 -8.625 L 3.984375 -8.625 C 4.253906 -9.070312 4.640625 -9.425781 5.140625 -9.6875 C 5.640625 -9.945312 6.210938 -10.078125 6.859375 -10.078125 C 8.335938 -10.078125 9.34375 -9.59375 9.875 -8.625 L 10.109375 -8.625 C 10.367188 -9.082031 10.753906 -9.4375 11.265625 -9.6875 C 11.785156 -9.945312 12.375 -10.078125 13.03125 -10.078125 C 14.144531 -10.078125 14.988281 -9.785156 15.5625 -9.203125 C 16.132812 -8.628906 16.421875 -7.710938 16.421875 -6.453125 L 16.421875 0 L 13.71875 0 L 13.71875 -5.78125 C 13.71875 -6.488281 13.597656 -7.019531 13.359375 -7.375 C 13.117188 -7.726562 12.742188 -7.90625 12.234375 -7.90625 C 11.578125 -7.90625 11.082031 -7.671875 10.75 -7.203125 C 10.425781 -6.734375 10.265625 -5.984375 10.265625 -4.953125 Z M 10.265625 0 "/></g></g></g></svg>